<?xml version="1.0" encoding="UTF-8"?>
<svg id="Layer_1" data-name="Layer 1" xmlns="http://www.w3.org/2000/svg" version="1.1" viewBox="0 0 122.9 122.9">
  <defs>
    <style>
      .cls-1 {
        fill: #fff;
        fill-rule: evenodd;
        stroke-width: 0px;
      }
    </style>
  </defs>
  <path class="cls-1" d="M61.4,0c33.9,0,61.4,27.5,61.4,61.4s-27.5,61.4-61.4,61.4S0,95.4,0,61.4,27.5,0,61.4,0h0ZM52.9,30.5h7.5c1.4,0,2.5,1.1,2.5,2.5v28.9h26.4c1.4,0,2.5,1.1,2.5,2.5v7.5c0,1.4-1.1,2.5-2.5,2.5h-38.9v-41.5c0-1.4,1.1-2.5,2.5-2.5h0ZM61.4,13.9c26.2,0,47.5,21.3,47.5,47.5s-21.3,47.5-47.5,47.5S13.9,87.7,13.9,61.4c0-26.2,21.3-47.5,47.5-47.5h0Z"/>
</svg>