<svg width="235" height="92" viewBox="0 0 235 92" fill="none" xmlns="http://www.w3.org/2000/svg">
    <path d="M15.488 59.576H26.752V67H10.496C7.68 64.3547 5.54667 61.0053 4.096 56.952C2.64533 52.8987 1.92 48.7387 1.92 44.472C1.92 40.1627 2.73067 36.024 4.352 32.056C5.97333 28.088 8.384 24.8027 11.584 22.2H26.752V29.88H15.488C14.336 31.2027 13.3333 33.336 12.48 36.28C11.6693 39.224 11.264 42.04 11.264 44.728C11.264 47.416 11.6693 50.232 12.48 53.176C13.3333 56.12 14.336 58.2533 15.488 59.576ZM50.686 22.2C53.6727 24.632 55.8913 27.896 57.342 31.992C58.7927 36.088 59.518 40.312 59.518 44.664C59.518 48.9733 58.814 53.0693 57.406 56.952C55.998 60.8347 53.758 64.184 50.686 67H37.502C34.43 64.184 32.19 60.8347 30.782 56.952C29.374 53.0693 28.67 48.9733 28.67 44.664C28.67 40.312 29.3953 36.088 30.846 31.992C32.2967 27.896 34.5153 24.632 37.502 22.2H50.686ZM41.79 59.576H46.398C47.4647 58.3387 48.3607 56.3333 49.086 53.56C49.854 50.744 50.238 47.7787 50.238 44.664C50.238 41.5493 49.8753 38.6267 49.15 35.896C48.4247 33.1227 47.5287 31.1173 46.462 29.88H41.79C40.7233 31.1173 39.806 33.1227 39.038 35.896C38.3127 38.6267 37.95 41.5493 37.95 44.664C37.95 47.7787 38.3127 50.744 39.038 53.56C39.806 56.3333 40.7233 58.3387 41.79 59.576ZM73.2135 59.576H78.9735C80.1682 58.0827 81.1068 55.9067 81.7895 53.048C82.5148 50.1893 82.8775 47.352 82.8775 44.536C82.8775 37.8373 81.6188 32.952 79.1015 29.88H73.2135V59.576ZM64.5095 67V22.2H83.0695C89.1282 27.576 92.1575 34.872 92.1575 44.088C92.1575 53.2613 89.3202 60.8987 83.6455 67H64.5095ZM97.1345 67V22.2H120.111V29.88H105.903V40.568H118.575V47.992H105.903V59.576H120.367V67H97.1345ZM184.249 22.2C187.235 24.632 189.454 27.896 190.905 31.992C192.355 36.088 193.081 40.312 193.081 44.664C193.081 48.9733 192.377 53.0693 190.969 56.952C189.561 60.8347 187.321 64.184 184.249 67H171.065C167.993 64.184 165.753 60.8347 164.345 56.952C162.937 53.0693 162.233 48.9733 162.233 44.664C162.233 40.312 162.958 36.088 164.409 31.992C165.859 27.896 168.078 24.632 171.065 22.2H184.249ZM175.353 59.576H179.961C181.027 58.3387 181.923 56.3333 182.649 53.56C183.417 50.744 183.801 47.7787 183.801 44.664C183.801 41.5493 183.438 38.6267 182.713 35.896C181.987 33.1227 181.091 31.1173 180.025 29.88H175.353C174.286 31.1173 173.369 33.1227 172.601 35.896C171.875 38.6267 171.513 41.5493 171.513 44.664C171.513 47.7787 171.875 50.744 172.601 53.56C173.369 56.3333 174.286 58.3387 175.353 59.576ZM201.231 22.2H216.591V29.88H204.303L204.111 30.264L214.351 48.952C216.441 52.7067 217.487 55.5653 217.487 57.528C217.487 61.8373 216.057 64.9947 213.199 67H196.239V59.576H209.487L209.679 59.192L198.159 38.52C196.495 35.5333 195.663 33.1013 195.663 31.224C195.663 26.7867 197.519 23.7787 201.231 22.2Z" fill="white"/>
    <path d="M128.094 67C127.156 67 126.688 66.5312 126.688 65.5938V35.5938C126.688 34.6562 127.156 34.1875 128.094 34.1875H130.781C131.719 34.1875 132.188 34.6562 132.188 35.5938V65.5938C132.188 66.5312 131.719 67 130.781 67H128.094ZM128.094 28.25C127.156 28.25 126.688 27.7812 126.688 26.8438V24.1562C126.688 23.2188 127.156 22.75 128.094 22.75H130.781C131.719 22.75 132.188 23.2188 132.188 24.1562V26.8438C132.188 27.7812 131.719 28.25 130.781 28.25H128.094ZM139.469 38.3125C138.531 38.3125 138.062 37.9479 138.062 37.2188V35.2812C138.062 34.5521 138.531 34.1875 139.469 34.1875H143.156V31.375C143.156 30.9583 143.26 30.5625 143.469 30.1875L145.656 26.2188C146.052 25.4896 146.375 25.125 146.625 25.125H147.719C148.344 25.125 148.656 25.4896 148.656 26.2188V34.1875H155.312C156.25 34.1875 156.719 34.5521 156.719 35.2812V37.2188C156.719 37.9479 156.25 38.3125 155.312 38.3125H148.656V58.2188C148.656 60.4062 148.979 61.8333 149.625 62.5C150.292 63.1458 151.083 63.4688 152 63.4688C152.708 63.4688 153.552 63.2604 154.531 62.8438C155.531 62.4271 156.219 62.0729 156.594 61.7812C156.969 61.4896 157.26 61.5833 157.469 62.0625L158.5 64.4688C158.667 64.8854 158.542 65.2188 158.125 65.4688C157.312 65.9479 156.125 66.4167 154.562 66.875C153 67.3125 151.438 67.5312 149.875 67.5312C147.708 67.5312 146.042 66.75 144.875 65.1875C143.729 63.625 143.156 61.4167 143.156 58.5625V38.3125H139.469Z" fill="#FF3D00"/>
    <circle cx="229" cy="13" r="6" fill="#FF3D00"/>
    </svg>
    